<svg xmlns="http://www.w3.org/2000/svg" width="300" height="300">
    <defs>
        <linearGradient id="a" x1="244.823" x2="1115.34" y1="-272.523" y2="-272.523" gradientTransform="scale(.30955)rotate(66.449 5.923 -40.04)" gradientUnits="userSpaceOnUse">
            <stop offset="0" stop-color="#0073A1"/>
            <stop offset="1" stop-color="#003555"/>
        </linearGradient>
    </defs>
    <path fill="#FFF" d="M300 150c0 82.844-67.156 150-150 150S0 232.844 0 150 67.156 0 150 0s150 67.156 150 150m0 0"/>
    <path fill="url(#a)" d="M153.527 15.441a134.7 134.7 0 0 0-56.175 11.204C29.14 56.375-2.055 135.777 27.676 203.992c25.16 57.324 86.484 89.77 148.031 78.313 2.625-8.364 4.773-17.535 4.773-27.535 0-1.422-.039-2.84-.117-4.301 0 0 4.817-8.211 8.606-18.91 4.695-13.223 2.21-27.79-5.922-39.317-.473-.633-.945-1.34-1.461-2.05-47.883 0-71.566-43.422-77.566-69.833-2.489-10.855-4.504-11.933-11.286-11.933-12.539 0-21.59-5.2-21.59-5.2-11.515 5.278-16.671 3.126-15.124-2.382-5.012-.551-4.91-6.242-1.856-11.473 3.824-6.555 11.645-11.012 21-11.012h5.012c10.344 0 12.472-5.41 23.133-4.261 1.656.156 3.195.433 4.617.789 2.96-3.395 6.316-4.817 10.383-4.543.632.082 1.027.633.906 1.226l-.985 4.578c-.355 1.7.118 3.473 1.34 4.618 8.606 8.054 13.543 21.793 19.067 34.187 8.96 18.274 30.593 43.656 65.293 11.09 24.398-22.898 39.136-41.988 63.363-43.867-23.695-40.555-66.805-65.84-113.766-66.735M96.32 81.731c-3.554 0-7.101 2.851-5.894 3.363.27.113.726.191 1.25.246.375 2.273 2.281 4.031 4.664 4.031 2.379 0 4.258-1.758 4.625-4.031.523-.055.976-.133 1.246-.246 1.207-.512-2.34-3.364-5.89-3.364M222.18 211.27c-2.88.07-5.465 1.898-6.328 4.699v.039c-4.305 13.816-12.672 31.656-12.672 31.656s-8.325 14.746-13.04 31.262a134 134 0 0 0 14.883-5.258 134.7 134.7 0 0 0 26.774-15.602 87 87 0 0 0-4.48-7.914s-2.762-12.277-8.055-25.66c.832-2.289 1.582-4.539 2.25-6.71l.043-.157c.156-.316.511-.434.906-.434h.039c2.762.434 5.684.868 9.078 1.262 1.027.078 2.094.16 3.16.277 1.301.118 2.563.239 3.867.317.313 12.418 5.704 24.289 7.067 27.121a134.8 134.8 0 0 0 24.781-33.406c-9.594 1.093-21.332 1.465-35.14.086-1.106-.118-2.211-.235-3.317-.317-3.039-.355-5.883-.75-8.566-1.183a7 7 0 0 0-1.25-.078m0 0"/>
</svg>
